<mxfile host="app.diagrams.net" modified="2023-09-14T01:25:44.116Z" agent="Mozilla/5.0 (X11; Linux x86_64) AppleWebKit/537.36 (KHTML, like Gecko) Chrome/115.0.0.0 Safari/537.36" version="21.7.5" etag="J0BsKZEd_MNy21nqYbfV" type="github">
  <diagram name="PÃ¡gina-1" id="bsU4vo7ALpFjdljr9feU">
    <mxGraphModel>
      <root>
        <mxCell id="0" />
        <mxCell id="1" parent="0" />
      </root>
    </mxGraphModel>
  </diagram>
</mxfile>
